<svg xmlns="http://www.w3.org/2000/svg" viewBox="0 0 361.98 366.44"><defs><style>.cls-1{fill:#1f9f90;}.cls-2{fill:#29a560;}.cls-3{fill:#25a56a;}.cls-4{fill:#e97b31;}.cls-5{fill:#f55b28;}.cls-6{fill:#b22631;}.cls-7{fill:#db1a28;}.cls-8{fill:#211a5f;}.cls-9{fill:#474da3;}.cls-10{fill:#4f71bd;}</style></defs><title>Asset 1</title><g id="Layer_2" data-name="Layer 2"><g id="tln_copy" data-name="tln copy"><polygon class="cls-1" points="77.19 104.25 61.11 84.14 62.62 82.93 77.5 101.54 112.76 73.7 86.26 39.62 87.78 38.44 115.47 74.03 77.19 104.25"/><polygon class="cls-1" points="168.54 131.59 140.13 99.39 118.81 116.83 95.75 88.38 97.25 87.16 119.09 114.11 140.35 96.71 169.99 130.31 168.54 131.59"/><rect class="cls-1" x="50.25" y="69.99" width="17.42" height="17.42" transform="matrix(0.78, -0.62, 0.62, 0.78, -36.25, 54.11)"/><circle class="cls-1" cx="83.15" cy="35.16" r="9.68"/><polygon class="cls-2" points="201.05 60.22 152.28 59.63 152.43 33.89 154.36 33.9 154.23 57.72 199.15 58.26 199.98 15.1 201.92 15.14 201.05 60.22"/><polygon class="cls-2" points="206.1 138.36 204.26 95.45 176.72 95.6 176.69 58.97 178.63 58.97 178.65 93.66 206.12 93.51 208.03 138.27 206.1 138.36"/><rect class="cls-3" x="145.47" y="19.6" width="17.42" height="17.42" transform="translate(0.15 -0.81) rotate(0.3)"/><circle class="cls-3" cx="200.37" cy="9.68" r="9.68"/><polygon class="cls-4" points="274.42 104 237.79 71.8 254.66 52.36 256.13 53.63 240.51 71.62 274.25 101.28 302.99 69.07 304.43 70.36 274.42 104"/><polygon class="cls-4" points="228.89 167.79 227.37 166.59 253.91 132.84 232.91 115.01 256.75 87.2 258.22 88.46 235.65 114.8 256.59 132.57 228.89 167.79"/><rect class="cls-4" x="250.92" y="40.56" width="17.42" height="17.42" transform="translate(95.76 -158.06) rotate(40.93)"/><circle class="cls-4" cx="306.82" cy="65.21" r="9.68"/><polygon class="cls-5" points="302.44 184.94 295.61 136.66 321.08 132.88 321.36 134.8 297.8 138.29 304.09 182.77 346.88 177.03 347.13 178.95 302.44 184.94"/><polygon class="cls-5" points="226.36 203.71 225.98 201.81 268.11 193.48 263.78 166.28 299.98 160.68 300.27 162.59 265.99 167.89 270.31 195.01 226.36 203.71"/><rect class="cls-5" x="318.15" y="125.06" width="17.42" height="17.42" transform="translate(411.2 -209.19) rotate(81.56)"/><circle class="cls-5" cx="352.3" cy="176.6" r="9.68"/><polygon class="cls-6" points="312.07 289.46 273.73 265.73 299.09 224.07 321.17 237.32 320.17 238.98 299.75 226.72 276.38 265.1 313.09 287.81 312.07 289.46"/><polygon class="cls-6" points="242.51 253.12 203.02 231.95 203.93 230.24 241.78 250.54 255.69 226.76 287.22 245.41 286.23 247.08 256.38 229.42 242.51 253.12"/><rect class="cls-6" x="316.37" y="232.97" width="17.42" height="17.42" transform="translate(699.52 87.17) rotate(120.95)"/><circle class="cls-6" cx="317.56" cy="290.92" r="9.68"/><polygon class="cls-7" points="209.84 351.98 197.63 308.57 244.48 295.02 251.79 319.71 249.94 320.26 243.17 297.42 200.02 309.9 211.71 351.45 209.84 351.98"/><polygon class="cls-7" points="219.45 303.28 209.39 270.09 183.15 278.18 168.36 235.88 170.19 235.24 184.36 275.78 210.68 267.66 221.31 302.72 219.45 303.28"/><rect class="cls-7" x="243.02" y="316.85" width="17.42" height="17.42" transform="translate(585.63 566.11) rotate(163.48)"/><circle class="cls-7" cx="212.9" cy="356.76" r="9.68"/><polygon class="cls-8" points="98.43 335.86 96.62 335.16 113 293.14 158.56 310.53 149.54 334.64 147.73 333.96 156.08 311.65 114.11 295.64 98.43 335.86"/><polygon class="cls-8" points="135.43 302.72 133.61 302.06 145.56 269.5 119.73 260.15 133.39 217.48 135.23 218.07 122.14 258.97 148.04 268.33 135.43 302.72"/><rect class="cls-8" x="137.26" y="330.56" width="17.42" height="17.42" transform="translate(163.92 708.18) rotate(-159.51)"/><circle class="cls-8" cx="96.18" cy="340.82" r="9.68"/><polygon class="cls-9" points="60.35 281.65 59.39 279.96 80.13 268.24 58.28 228.99 20.41 249.71 19.48 248.02 59.03 226.37 82.76 268.98 60.35 281.65"/><polygon class="cls-9" points="70.05 248.12 69.09 246.44 99.18 229.19 85.4 205.43 123.3 181.52 124.33 183.16 88.01 206.07 101.83 229.9 70.05 248.12"/><rect class="cls-9" x="45.92" y="274.19" width="17.42" height="17.42" transform="translate(-164.7 469.73) rotate(-119.5)"/><circle class="cls-9" cx="15.51" cy="252.07" r="9.68"/><polygon class="cls-10" points="50.92 188.07 25.56 183.64 25.89 181.74 49.36 185.84 57.38 141.63 14.96 133.62 15.32 131.72 59.63 140.09 50.92 188.07"/><polygon class="cls-10" points="90.46 169.97 54.34 163.89 54.66 161.99 88.86 167.74 93.29 140.63 137.75 146.21 137.51 148.13 94.9 142.79 90.46 169.97"/><rect class="cls-10" x="11.64" y="172.27" width="17.42" height="17.42" transform="translate(-161.44 169.93) rotate(-80.11)"/><circle class="cls-10" cx="9.68" cy="132.33" r="9.68"/></g></g></svg>